<svg xmlns="http://www.w3.org/2000/svg" viewBox="0 0 256 256" style="enable-background:new 0 0 256 256" xml:space="preserve"><path d="M119.6.1c-.6.1-2.3.2-3.9.4-36.4 3.3-70.4 22.9-92 53C11.7 70.3 4 89.3 1.1 109.4c-1 7-1.2 9.1-1.2 18.6 0 9.5.1 11.6 1.2 18.6 7 48.1 41.2 88.4 87.6 103.4 8.3 2.7 17.1 4.5 27 5.6 3.9.4 20.6.4 24.5 0 17.2-1.9 31.8-6.2 46.1-13.5 2.2-1.1 2.6-1.4 2.3-1.7-.2-.2-9.6-12.7-20.8-27.9l-20.5-27.6-25.7-38C107.6 126.1 96 109 95.9 109c-.1 0-.2 16.8-.3 37.4-.1 36.1-.1 37.5-.6 38.4-.7 1.2-1.2 1.7-2.2 2.3-.8.4-1.5.5-5.3.5h-4.3l-1.2-.7c-.8-.5-1.3-1.1-1.7-1.8l-.5-1.1.1-50.2.1-50.2.8-1c.4-.5 1.3-1.2 1.9-1.5 1-.5 1.4-.6 5.8-.6 5.1 0 6 .2 7.3 1.7.4.4 14.3 21.3 30.9 46.5s39.3 59.6 50.5 76.5l20.3 30.7 1-.7c9.1-5.9 18.7-14.3 26.3-23.1 16.2-18.6 26.6-41.3 30.1-65.4 1-7 1.2-9.1 1.2-18.6 0-9.5-.1-11.6-1.2-18.6-7-48.1-41.2-88.4-87.6-103.4-8.2-2.7-16.9-4.5-26.7-5.6-2.4-.4-18.9-.6-21-.4zM172 77.5c1.2.6 2.2 1.8 2.5 3 .2.7.3 14.6.2 45.9l-.1 45-7.9-12.2-8-12.2v-32.7c0-21.1.1-33 .3-33.6.4-1.4 1.3-2.5 2.5-3.2 1-.5 1.4-.6 5.3-.6 3.7.1 4.4.1 5.2.6z" style="fill:#f0f8ff"/></svg>